<svg xmlns="http://www.w3.org/2000/svg" viewBox="0 0 512 512">
  <!-- Stashify: pixel-to-smooth "S" — mosaic dissolving into clarity -->
  <defs>
    <linearGradient id="bg" x1="0" y1="0" x2="1" y2="1">
      <stop offset="0" stop-color="#1c2940"/>
      <stop offset="1" stop-color="#0c1322"/>
    </linearGradient>
    <linearGradient id="s" x1="0.15" y1="0" x2="0.85" y2="1">
      <stop offset="0" stop-color="#3b82f6"/>
      <stop offset="1" stop-color="#35e0ca"/>
    </linearGradient>
    <linearGradient id="rim" x1="0" y1="0" x2="0" y2="1">
      <stop offset="0" stop-color="#ffffff" stop-opacity=".22"/>
      <stop offset=".4" stop-color="#ffffff" stop-opacity=".08"/>
      <stop offset="1" stop-color="#ffffff" stop-opacity=".05"/>
    </linearGradient>
  </defs>
  <rect x="32" y="32" width="448" height="448" rx="104" fill="url(#bg)"/>
  <rect x="35" y="35" width="442" height="442" rx="101" fill="none" stroke="url(#rim)" stroke-width="4"/>
  <path fill="url(#s)" d="M295 182 H365 A109 109 0 0 0 256 73 H214 V90 H182 V118 H160 V150 H148 V218 C180 268 214 291 256 291 A39 39 0 1 1 217 330 A35 35 0 0 0 147 330 A109 109 0 1 0 256 221 A39 39 0 0 1 217 182 V166 H237 V150 A39 39 0 0 1 295 182 Z"/>
  <!-- mosaic dissolve trail: larger, brighter, fading up the diagonal -->
  <rect x="196" y="48" width="22" height="22" fill="#60a5fa" opacity=".9"/>
  <rect x="164" y="76" width="17" height="17" fill="#4f8ff8" opacity=".65"/>
  <rect x="136" y="104" width="13" height="13" fill="#3b82f6" opacity=".45"/>
  <rect x="118" y="130" width="10" height="10" fill="#3b82f6" opacity=".3"/>
  <rect x="230" y="66" width="10" height="10" fill="#7cc4ff" opacity=".5"/>
  <rect x="120" y="190" width="12" height="12" fill="#2dd4bf" opacity=".35"/>
</svg>
