<svg xmlns="http://www.w3.org/2000/svg" width="440" height="116" viewBox="0 0 440 116">
  <!-- Stashify horizontal lockup: icon + wordmark -->
  <defs>
    <linearGradient id="lbg" x1="0" y1="0" x2="1" y2="1">
      <stop offset="0" stop-color="#1c2940"/>
      <stop offset="1" stop-color="#0c1322"/>
    </linearGradient>
    <linearGradient id="ls" x1="0.15" y1="0" x2="0.85" y2="1">
      <stop offset="0" stop-color="#3b82f6"/>
      <stop offset="1" stop-color="#35e0ca"/>
    </linearGradient>
  </defs>
  <!-- icon, 512 -> 96 -->
  <g transform="translate(10 10) scale(0.1875)">
    <rect x="0" y="0" width="512" height="512" rx="115" fill="url(#lbg)"/>
    <path fill="url(#ls)" transform="translate(-14 -14) scale(1.055)" d="M295 182 H365 A109 109 0 0 0 256 73 H214 V90 H182 V118 H160 V150 H148 V218 C180 268 214 291 256 291 A39 39 0 1 1 217 330 A35 35 0 0 0 147 330 A109 109 0 1 0 256 221 A39 39 0 0 1 217 182 V166 H237 V150 A39 39 0 0 1 295 182 Z"/>
    <rect x="184" y="26" width="26" height="26" fill="#60a5fa" opacity=".9"/>
    <rect x="148" y="60" width="18" height="18" fill="#4f8ff8" opacity=".6"/>
  </g>
  <text x="124" y="76" font-family="-apple-system,'Segoe UI',Roboto,Helvetica,Arial,sans-serif"
        font-size="52" font-weight="700" fill="#f2f3f4" letter-spacing="-1">Stashify</text>
  <text x="124" y="100" font-family="-apple-system,'Segoe UI',Roboto,Helvetica,Arial,sans-serif"
        font-size="17" fill="#9aa0a6">upscale &amp; decensor for Stash</text>
</svg>
