<svg width="440" height="116" viewBox="0 0 440 116" fill="none" xmlns="http://www.w3.org/2000/svg">
  <defs>
    <linearGradient id="lbg" x1="0" y1="0" x2="512" y2="512" gradientUnits="userSpaceOnUse">
      <stop stop-color="#2d3238"/><stop offset="1" stop-color="#1b1e21"/>
    </linearGradient>
    <linearGradient id="limg" x1="128" y1="392" x2="384" y2="120" gradientUnits="userSpaceOnUse">
      <stop stop-color="#e85d4a"/><stop offset="0.55" stop-color="#f0824f"/><stop offset="1" stop-color="#f4b15e"/>
    </linearGradient>
    <clipPath id="lscreen"><rect x="120" y="120" width="272" height="272" rx="44"/></clipPath>
  </defs>

  <!-- icon, scaled 512 -> 96 -->
  <g transform="translate(10 10) scale(0.1875)">
    <rect width="512" height="512" rx="115" fill="url(#lbg)"/>
    <g clip-path="url(#lscreen)">
      <rect x="120" y="120" width="272" height="272" fill="url(#limg)"/>
      <circle cx="330" cy="168" r="118" fill="#ffffff" fill-opacity="0.12"/>
      <g fill="#191c20">
        <rect x="120" y="120" width="68" height="68" opacity="0.93"/>
        <rect x="120" y="188" width="68" height="68" opacity="0.90"/>
        <rect x="120" y="256" width="68" height="68" opacity="0.93"/>
        <rect x="120" y="324" width="68" height="68" opacity="0.88"/>
        <rect x="188" y="120" width="68" height="68" opacity="0.60"/>
        <rect x="188" y="188" width="68" height="68" opacity="0.66"/>
        <rect x="188" y="256" width="68" height="68" opacity="0.55"/>
        <rect x="188" y="324" width="68" height="68" opacity="0.62"/>
        <rect x="256" y="120" width="68" height="68" opacity="0.30"/>
        <rect x="256" y="188" width="68" height="68" opacity="0.24"/>
        <rect x="256" y="256" width="68" height="68" opacity="0.32"/>
        <rect x="256" y="324" width="68" height="68" opacity="0.22"/>
        <rect x="324" y="120" width="68" height="68" opacity="0.10"/>
        <rect x="324" y="188" width="68" height="68" opacity="0.06"/>
        <rect x="324" y="256" width="68" height="68" opacity="0.09"/>
        <rect x="324" y="324" width="68" height="68" opacity="0.05"/>
      </g>
    </g>
    <path transform="translate(344 152)" d="M0 -28 L6.5 -6.5 L28 0 L6.5 6.5 L0 28 L-6.5 6.5 L-28 0 L-6.5 -6.5 Z" fill="#ffffff" opacity="0.96"/>
  </g>

  <text x="122" y="56" font-family="-apple-system, BlinkMacSystemFont, 'Segoe UI', Roboto, Helvetica, Arial, sans-serif" font-size="42" font-weight="700" fill="#e9eaec">Decensor</text>
  <text x="124" y="82" font-family="-apple-system, BlinkMacSystemFont, 'Segoe UI', Roboto, Helvetica, Arial, sans-serif" font-size="14.5" font-weight="500" letter-spacing="0.4" fill="#9aa0a6">for Stash · on-demand mosaic removal</text>
</svg>
