<svg xmlns="http://www.w3.org/2000/svg" viewBox="0 0 512 512">
  <!-- Stashify favicon: simplified S monogram (fine dissolve detail dropped for tiny sizes) -->
  <defs>
    <linearGradient id="fbg" x1="0" y1="0" x2="1" y2="1">
      <stop offset="0" stop-color="#1c2940"/>
      <stop offset="1" stop-color="#0c1322"/>
    </linearGradient>
    <linearGradient id="fs" x1="0.15" y1="0" x2="0.85" y2="1">
      <stop offset="0" stop-color="#3b82f6"/>
      <stop offset="1" stop-color="#35e0ca"/>
    </linearGradient>
  </defs>
  <rect width="512" height="512" rx="115" fill="url(#fbg)"/>
  <path fill="url(#fs)" d="M295 182 H365 A109 109 0 0 0 256 73 H214 V90 H182 V118 H160 V150 H148 V218 C180 268 214 291 256 291 A39 39 0 1 1 217 330 A35 35 0 0 0 147 330 A109 109 0 1 0 256 221 A39 39 0 0 1 217 182 V166 H237 V150 A39 39 0 0 1 295 182 Z"/>
  <rect x="186" y="40" width="26" height="26" fill="#60a5fa" opacity=".9"/>
</svg>
